<mxfile host="app.diagrams.net" modified="2024-05-12T22:05:25.441Z" agent="Mozilla/5.0 (Windows NT 10.0; Win64; x64) AppleWebKit/537.36 (KHTML, like Gecko) Chrome/124.0.0.0 Safari/537.36" etag="0fiz4iQRbhW8Qj1Tb852" version="24.4.0" type="google">
  <diagram name="Page-1" id="ZKP97hUA9BaVZFnZbp1n">
    <mxGraphModel grid="1" page="1" gridSize="10" guides="1" tooltips="1" connect="1" arrows="1" fold="1" pageScale="1" pageWidth="850" pageHeight="1100" math="0" shadow="0">
      <root>
        <mxCell id="0" />
        <mxCell id="1" parent="0" />
        <mxCell id="osWjXlGTEOlVtq6kvsLH-1" value="&lt;span style=&quot;font-size: 20px;&quot;&gt;&lt;b&gt;&lt;i&gt;ejercicio_04_CalculoDeSueldos&lt;/i&gt;&lt;/b&gt;&lt;/span&gt;" style="text;html=1;align=center;verticalAlign=middle;resizable=0;points=[];autosize=1;strokeColor=none;fillColor=none;" vertex="1" parent="1">
          <mxGeometry x="1320" y="-1240" width="320" height="40" as="geometry" />
        </mxCell>
        <mxCell id="osWjXlGTEOlVtq6kvsLH-3" value="&lt;&lt;abstract&gt;&gt;&#xa;Empleado &#xa;" style="swimlane;fontStyle=0;align=center;verticalAlign=top;childLayout=stackLayout;horizontal=1;startSize=40;horizontalStack=0;resizeParent=1;resizeLast=0;collapsible=1;marginBottom=0;rounded=0;shadow=0;strokeWidth=1;fillColor=#fff2cc;strokeColor=#d6b656;" vertex="1" parent="1">
          <mxGeometry x="1160" y="-1960" width="280" height="200" as="geometry">
            <mxRectangle x="110" y="-20" width="160" height="26" as="alternateBounds" />
          </mxGeometry>
        </mxCell>
        <mxCell id="osWjXlGTEOlVtq6kvsLH-5" value="- nombre : String" style="text;align=left;verticalAlign=top;spacingLeft=4;spacingRight=4;overflow=hidden;rotatable=0;points=[[0,0.5],[1,0.5]];portConstraint=eastwest;rounded=0;shadow=0;html=0;" vertex="1" parent="osWjXlGTEOlVtq6kvsLH-3">
          <mxGeometry y="40" width="280" height="22" as="geometry" />
        </mxCell>
        <mxCell id="osWjXlGTEOlVtq6kvsLH-4" value="" style="line;html=1;strokeWidth=1;align=left;verticalAlign=middle;spacingTop=-1;spacingLeft=3;spacingRight=3;rotatable=0;labelPosition=right;points=[];portConstraint=eastwest;" vertex="1" parent="osWjXlGTEOlVtq6kvsLH-3">
          <mxGeometry y="62" width="280" height="8" as="geometry" />
        </mxCell>
        <mxCell id="osWjXlGTEOlVtq6kvsLH-6" value="+ getNombre() : String" style="text;align=left;verticalAlign=top;spacingLeft=4;spacingRight=4;overflow=hidden;rotatable=0;points=[[0,0.5],[1,0.5]];portConstraint=eastwest;rounded=0;shadow=0;html=0;" vertex="1" parent="osWjXlGTEOlVtq6kvsLH-3">
          <mxGeometry y="70" width="280" height="22" as="geometry" />
        </mxCell>
        <mxCell id="osWjXlGTEOlVtq6kvsLH-7" value="+ sueldo() : Real" style="text;align=left;verticalAlign=top;spacingLeft=4;spacingRight=4;overflow=hidden;rotatable=0;points=[[0,0.5],[1,0.5]];portConstraint=eastwest;rounded=0;shadow=0;html=0;" vertex="1" parent="osWjXlGTEOlVtq6kvsLH-3">
          <mxGeometry y="92" width="280" height="22" as="geometry" />
        </mxCell>
        <mxCell id="osWjXlGTEOlVtq6kvsLH-89" value="+ descuento() : Real" style="text;align=left;verticalAlign=top;spacingLeft=4;spacingRight=4;overflow=hidden;rotatable=0;points=[[0,0.5],[1,0.5]];portConstraint=eastwest;rounded=0;shadow=0;html=0;" vertex="1" parent="osWjXlGTEOlVtq6kvsLH-3">
          <mxGeometry y="114" width="280" height="22" as="geometry" />
        </mxCell>
        <mxCell id="osWjXlGTEOlVtq6kvsLH-8" value="+ &lt;&lt;abstract&gt;&gt; sueldoBasico() : Real" style="text;align=left;verticalAlign=top;spacingLeft=4;spacingRight=4;overflow=hidden;rotatable=0;points=[[0,0.5],[1,0.5]];portConstraint=eastwest;rounded=0;shadow=0;html=0;" vertex="1" parent="osWjXlGTEOlVtq6kvsLH-3">
          <mxGeometry y="136" width="280" height="22" as="geometry" />
        </mxCell>
        <mxCell id="osWjXlGTEOlVtq6kvsLH-50" value="+ &lt;&lt;abstract&gt;&gt; sualdoAdicional() : Real" style="text;align=left;verticalAlign=top;spacingLeft=4;spacingRight=4;overflow=hidden;rotatable=0;points=[[0,0.5],[1,0.5]];portConstraint=eastwest;rounded=0;shadow=0;html=0;" vertex="1" parent="osWjXlGTEOlVtq6kvsLH-3">
          <mxGeometry y="158" width="280" height="22" as="geometry" />
        </mxCell>
        <mxCell id="osWjXlGTEOlVtq6kvsLH-76" style="edgeStyle=orthogonalEdgeStyle;rounded=0;orthogonalLoop=1;jettySize=auto;html=1;endSize=12;startSize=12;endArrow=block;endFill=0;" edge="1" parent="1" source="osWjXlGTEOlVtq6kvsLH-20" target="osWjXlGTEOlVtq6kvsLH-3">
          <mxGeometry relative="1" as="geometry">
            <Array as="points">
              <mxPoint x="1460" y="-1720" />
              <mxPoint x="1300" y="-1720" />
            </Array>
          </mxGeometry>
        </mxCell>
        <mxCell id="osWjXlGTEOlVtq6kvsLH-20" value="Pasante" style="swimlane;fontStyle=0;align=center;verticalAlign=top;childLayout=stackLayout;horizontal=1;startSize=30;horizontalStack=0;resizeParent=1;resizeLast=0;collapsible=1;marginBottom=0;rounded=0;shadow=0;strokeWidth=1;fillColor=#fff2cc;strokeColor=#d6b656;" vertex="1" parent="1">
          <mxGeometry x="1360" y="-1680" width="200" height="120" as="geometry">
            <mxRectangle x="110" y="-20" width="160" height="26" as="alternateBounds" />
          </mxGeometry>
        </mxCell>
        <mxCell id="osWjXlGTEOlVtq6kvsLH-22" value="- cantExamenes : Integer" style="text;align=left;verticalAlign=top;spacingLeft=4;spacingRight=4;overflow=hidden;rotatable=0;points=[[0,0.5],[1,0.5]];portConstraint=eastwest;rounded=0;shadow=0;html=0;" vertex="1" parent="osWjXlGTEOlVtq6kvsLH-20">
          <mxGeometry y="30" width="200" height="26" as="geometry" />
        </mxCell>
        <mxCell id="osWjXlGTEOlVtq6kvsLH-21" value="" style="line;html=1;strokeWidth=1;align=left;verticalAlign=middle;spacingTop=-1;spacingLeft=3;spacingRight=3;rotatable=0;labelPosition=right;points=[];portConstraint=eastwest;" vertex="1" parent="osWjXlGTEOlVtq6kvsLH-20">
          <mxGeometry y="56" width="200" height="8" as="geometry" />
        </mxCell>
        <mxCell id="osWjXlGTEOlVtq6kvsLH-23" value="+ sueldoBasico() : Real" style="text;align=left;verticalAlign=top;spacingLeft=4;spacingRight=4;overflow=hidden;rotatable=0;points=[[0,0.5],[1,0.5]];portConstraint=eastwest;rounded=0;shadow=0;html=0;" vertex="1" parent="osWjXlGTEOlVtq6kvsLH-20">
          <mxGeometry y="64" width="200" height="22" as="geometry" />
        </mxCell>
        <mxCell id="osWjXlGTEOlVtq6kvsLH-74" value="+ sueldoAdicional() : Real" style="text;align=left;verticalAlign=top;spacingLeft=4;spacingRight=4;overflow=hidden;rotatable=0;points=[[0,0.5],[1,0.5]];portConstraint=eastwest;rounded=0;shadow=0;html=0;" vertex="1" parent="osWjXlGTEOlVtq6kvsLH-20">
          <mxGeometry y="86" width="200" height="22" as="geometry" />
        </mxCell>
        <mxCell id="osWjXlGTEOlVtq6kvsLH-25" value="&lt;span style=&quot;font-size: 20px;&quot;&gt;&lt;b&gt;&lt;i style=&quot;font-size: 1px;&quot;&gt;.&lt;/i&gt;&lt;/b&gt;&lt;/span&gt;" style="text;html=1;align=center;verticalAlign=middle;resizable=0;points=[];autosize=1;strokeColor=none;fillColor=none;" vertex="1" parent="1">
          <mxGeometry x="920" y="-1920" width="20" height="40" as="geometry" />
        </mxCell>
        <mxCell id="osWjXlGTEOlVtq6kvsLH-49" value="&lt;span style=&quot;font-size: 20px;&quot;&gt;&lt;b&gt;&lt;i style=&quot;font-size: 1px;&quot;&gt;.&lt;/i&gt;&lt;/b&gt;&lt;/span&gt;" style="text;html=1;align=center;verticalAlign=middle;resizable=0;points=[];autosize=1;strokeColor=none;fillColor=none;" vertex="1" parent="1">
          <mxGeometry x="880" y="-2000" width="20" height="40" as="geometry" />
        </mxCell>
        <mxCell id="osWjXlGTEOlVtq6kvsLH-58" style="edgeStyle=orthogonalEdgeStyle;rounded=0;orthogonalLoop=1;jettySize=auto;html=1;entryX=0.5;entryY=1;entryDx=0;entryDy=0;endSize=12;startSize=12;endArrow=block;endFill=0;" edge="1" parent="1" source="osWjXlGTEOlVtq6kvsLH-51" target="osWjXlGTEOlVtq6kvsLH-3">
          <mxGeometry relative="1" as="geometry">
            <Array as="points">
              <mxPoint x="1160" y="-1720" />
              <mxPoint x="1300" y="-1720" />
            </Array>
          </mxGeometry>
        </mxCell>
        <mxCell id="osWjXlGTEOlVtq6kvsLH-51" value="&lt;&lt;abstract&gt;&gt;&#xa;ConFamilia&#xa;" style="swimlane;fontStyle=0;align=center;verticalAlign=top;childLayout=stackLayout;horizontal=1;startSize=40;horizontalStack=0;resizeParent=1;resizeLast=0;collapsible=1;marginBottom=0;rounded=0;shadow=0;strokeWidth=1;fillColor=#fff2cc;strokeColor=#d6b656;" vertex="1" parent="1">
          <mxGeometry x="1040" y="-1680" width="200" height="200" as="geometry">
            <mxRectangle x="110" y="-20" width="160" height="26" as="alternateBounds" />
          </mxGeometry>
        </mxCell>
        <mxCell id="osWjXlGTEOlVtq6kvsLH-53" value="- casado : Boolean" style="text;align=left;verticalAlign=top;spacingLeft=4;spacingRight=4;overflow=hidden;rotatable=0;points=[[0,0.5],[1,0.5]];portConstraint=eastwest;rounded=0;shadow=0;html=0;" vertex="1" parent="osWjXlGTEOlVtq6kvsLH-51">
          <mxGeometry y="40" width="200" height="22" as="geometry" />
        </mxCell>
        <mxCell id="osWjXlGTEOlVtq6kvsLH-54" value="- cantHijos : Integer" style="text;align=left;verticalAlign=top;spacingLeft=4;spacingRight=4;overflow=hidden;rotatable=0;points=[[0,0.5],[1,0.5]];portConstraint=eastwest;rounded=0;shadow=0;html=0;" vertex="1" parent="osWjXlGTEOlVtq6kvsLH-51">
          <mxGeometry y="62" width="200" height="22" as="geometry" />
        </mxCell>
        <mxCell id="osWjXlGTEOlVtq6kvsLH-52" value="" style="line;html=1;strokeWidth=1;align=left;verticalAlign=middle;spacingTop=-1;spacingLeft=3;spacingRight=3;rotatable=0;labelPosition=right;points=[];portConstraint=eastwest;" vertex="1" parent="osWjXlGTEOlVtq6kvsLH-51">
          <mxGeometry y="84" width="200" height="8" as="geometry" />
        </mxCell>
        <mxCell id="osWjXlGTEOlVtq6kvsLH-55" value="+ isCasado() : Boolean" style="text;align=left;verticalAlign=top;spacingLeft=4;spacingRight=4;overflow=hidden;rotatable=0;points=[[0,0.5],[1,0.5]];portConstraint=eastwest;rounded=0;shadow=0;html=0;" vertex="1" parent="osWjXlGTEOlVtq6kvsLH-51">
          <mxGeometry y="92" width="200" height="22" as="geometry" />
        </mxCell>
        <mxCell id="osWjXlGTEOlVtq6kvsLH-56" value="+ getHijos() : Boolean" style="text;align=left;verticalAlign=top;spacingLeft=4;spacingRight=4;overflow=hidden;rotatable=0;points=[[0,0.5],[1,0.5]];portConstraint=eastwest;rounded=0;shadow=0;html=0;" vertex="1" parent="osWjXlGTEOlVtq6kvsLH-51">
          <mxGeometry y="114" width="200" height="22" as="geometry" />
        </mxCell>
        <mxCell id="osWjXlGTEOlVtq6kvsLH-57" value="+ getCantHijos() : Integer" style="text;align=left;verticalAlign=top;spacingLeft=4;spacingRight=4;overflow=hidden;rotatable=0;points=[[0,0.5],[1,0.5]];portConstraint=eastwest;rounded=0;shadow=0;html=0;" vertex="1" parent="osWjXlGTEOlVtq6kvsLH-51">
          <mxGeometry y="136" width="200" height="22" as="geometry" />
        </mxCell>
        <mxCell id="osWjXlGTEOlVtq6kvsLH-59" value="+ sueldoAdicional() : Real" style="text;align=left;verticalAlign=top;spacingLeft=4;spacingRight=4;overflow=hidden;rotatable=0;points=[[0,0.5],[1,0.5]];portConstraint=eastwest;rounded=0;shadow=0;html=0;" vertex="1" parent="osWjXlGTEOlVtq6kvsLH-51">
          <mxGeometry y="158" width="200" height="22" as="geometry" />
        </mxCell>
        <mxCell id="osWjXlGTEOlVtq6kvsLH-88" style="edgeStyle=orthogonalEdgeStyle;rounded=0;orthogonalLoop=1;jettySize=auto;html=1;endSize=12;startSize=12;endArrow=block;endFill=0;" edge="1" parent="1" source="osWjXlGTEOlVtq6kvsLH-77" target="osWjXlGTEOlVtq6kvsLH-51">
          <mxGeometry relative="1" as="geometry">
            <Array as="points">
              <mxPoint x="1020" y="-1440" />
              <mxPoint x="1140" y="-1440" />
            </Array>
          </mxGeometry>
        </mxCell>
        <mxCell id="osWjXlGTEOlVtq6kvsLH-77" value="Planta" style="swimlane;fontStyle=0;align=center;verticalAlign=top;childLayout=stackLayout;horizontal=1;startSize=30;horizontalStack=0;resizeParent=1;resizeLast=0;collapsible=1;marginBottom=0;rounded=0;shadow=0;strokeWidth=1;fillColor=#fff2cc;strokeColor=#d6b656;" vertex="1" parent="1">
          <mxGeometry x="920" y="-1400" width="200" height="120" as="geometry">
            <mxRectangle x="110" y="-20" width="160" height="26" as="alternateBounds" />
          </mxGeometry>
        </mxCell>
        <mxCell id="osWjXlGTEOlVtq6kvsLH-79" value="- cantExamenes : Integer" style="text;align=left;verticalAlign=top;spacingLeft=4;spacingRight=4;overflow=hidden;rotatable=0;points=[[0,0.5],[1,0.5]];portConstraint=eastwest;rounded=0;shadow=0;html=0;" vertex="1" parent="osWjXlGTEOlVtq6kvsLH-77">
          <mxGeometry y="30" width="200" height="26" as="geometry" />
        </mxCell>
        <mxCell id="osWjXlGTEOlVtq6kvsLH-78" value="" style="line;html=1;strokeWidth=1;align=left;verticalAlign=middle;spacingTop=-1;spacingLeft=3;spacingRight=3;rotatable=0;labelPosition=right;points=[];portConstraint=eastwest;" vertex="1" parent="osWjXlGTEOlVtq6kvsLH-77">
          <mxGeometry y="56" width="200" height="8" as="geometry" />
        </mxCell>
        <mxCell id="osWjXlGTEOlVtq6kvsLH-80" value="+ sueldoBasico() : Real" style="text;align=left;verticalAlign=top;spacingLeft=4;spacingRight=4;overflow=hidden;rotatable=0;points=[[0,0.5],[1,0.5]];portConstraint=eastwest;rounded=0;shadow=0;html=0;" vertex="1" parent="osWjXlGTEOlVtq6kvsLH-77">
          <mxGeometry y="64" width="200" height="22" as="geometry" />
        </mxCell>
        <mxCell id="osWjXlGTEOlVtq6kvsLH-81" value="+ sueldoAdicional() : Real" style="text;align=left;verticalAlign=top;spacingLeft=4;spacingRight=4;overflow=hidden;rotatable=0;points=[[0,0.5],[1,0.5]];portConstraint=eastwest;rounded=0;shadow=0;html=0;" vertex="1" parent="osWjXlGTEOlVtq6kvsLH-77">
          <mxGeometry y="86" width="200" height="22" as="geometry" />
        </mxCell>
        <mxCell id="osWjXlGTEOlVtq6kvsLH-87" style="edgeStyle=orthogonalEdgeStyle;rounded=0;orthogonalLoop=1;jettySize=auto;html=1;endSize=12;startSize=12;endArrow=block;endFill=0;" edge="1" parent="1" source="osWjXlGTEOlVtq6kvsLH-82" target="osWjXlGTEOlVtq6kvsLH-51">
          <mxGeometry relative="1" as="geometry">
            <Array as="points">
              <mxPoint x="1260" y="-1440" />
              <mxPoint x="1140" y="-1440" />
            </Array>
          </mxGeometry>
        </mxCell>
        <mxCell id="osWjXlGTEOlVtq6kvsLH-82" value="Temporario" style="swimlane;fontStyle=0;align=center;verticalAlign=top;childLayout=stackLayout;horizontal=1;startSize=30;horizontalStack=0;resizeParent=1;resizeLast=0;collapsible=1;marginBottom=0;rounded=0;shadow=0;strokeWidth=1;fillColor=#fff2cc;strokeColor=#d6b656;" vertex="1" parent="1">
          <mxGeometry x="1160" y="-1400" width="200" height="120" as="geometry">
            <mxRectangle x="110" y="-20" width="160" height="26" as="alternateBounds" />
          </mxGeometry>
        </mxCell>
        <mxCell id="osWjXlGTEOlVtq6kvsLH-83" value="- cantExamenes : Integer" style="text;align=left;verticalAlign=top;spacingLeft=4;spacingRight=4;overflow=hidden;rotatable=0;points=[[0,0.5],[1,0.5]];portConstraint=eastwest;rounded=0;shadow=0;html=0;" vertex="1" parent="osWjXlGTEOlVtq6kvsLH-82">
          <mxGeometry y="30" width="200" height="26" as="geometry" />
        </mxCell>
        <mxCell id="osWjXlGTEOlVtq6kvsLH-84" value="" style="line;html=1;strokeWidth=1;align=left;verticalAlign=middle;spacingTop=-1;spacingLeft=3;spacingRight=3;rotatable=0;labelPosition=right;points=[];portConstraint=eastwest;" vertex="1" parent="osWjXlGTEOlVtq6kvsLH-82">
          <mxGeometry y="56" width="200" height="8" as="geometry" />
        </mxCell>
        <mxCell id="osWjXlGTEOlVtq6kvsLH-85" value="+ sueldoBasico() : Real" style="text;align=left;verticalAlign=top;spacingLeft=4;spacingRight=4;overflow=hidden;rotatable=0;points=[[0,0.5],[1,0.5]];portConstraint=eastwest;rounded=0;shadow=0;html=0;" vertex="1" parent="osWjXlGTEOlVtq6kvsLH-82">
          <mxGeometry y="64" width="200" height="22" as="geometry" />
        </mxCell>
        <mxCell id="osWjXlGTEOlVtq6kvsLH-86" value="+ sueldoAdicional() : Real" style="text;align=left;verticalAlign=top;spacingLeft=4;spacingRight=4;overflow=hidden;rotatable=0;points=[[0,0.5],[1,0.5]];portConstraint=eastwest;rounded=0;shadow=0;html=0;" vertex="1" parent="osWjXlGTEOlVtq6kvsLH-82">
          <mxGeometry y="86" width="200" height="22" as="geometry" />
        </mxCell>
      </root>
    </mxGraphModel>
  </diagram>
</mxfile>
